<svg width="60" height="60" viewBox="0 0 60 60" fill="none" xmlns="http://www.w3.org/2000/svg">
<rect width="60" height="60" rx="10.71" fill="white"/>
<path opacity="0.2" d="M29.7859 30.1616V17.7106C29.7859 11.7953 24.9237 7 19.0084 7V7C13.0931 7 8.23083 11.7953 8.23083 17.7106V28.6673" stroke="#0830F7" stroke-width="4.30769"/>
<path opacity="0.4" d="M51.2065 30.1616V17.7106C51.2065 11.7953 46.4112 7 40.496 7H18.9409C13.0256 7 8.23031 11.7953 8.23031 17.7106V28.6673" stroke="#0830F7" stroke-width="4.30769"/>
<path d="M29.6499 29.7597V42.2108C29.6499 48.1261 34.5121 52.9214 40.4274 52.9214V52.9214C46.3427 52.9214 51.205 48.1261 51.205 42.2108V31.254" stroke="#0830F7" stroke-width="4.30769"/>
<path opacity="0.2" d="M8.22925 29.76V42.211C8.22925 48.1263 13.0245 52.9216 18.9398 52.9216H40.4949C46.4102 52.9216 51.2055 48.1263 51.2055 42.211V31.2543" stroke="#0830F7" stroke-width="4.30769"/>
<path d="M8.22983 37.1107C12.2227 37.1107 15.4597 33.8738 15.4597 29.881C15.4597 25.8882 12.2227 22.6514 8.22983 22.6514C4.2369 22.6514 1 25.8882 1 29.881C1 33.8738 4.2369 37.1107 8.22983 37.1107Z" fill="#0830F7"/>
<path d="M37.0009 29.881C37.0009 33.8738 33.764 37.1107 29.7711 37.1107C25.7782 37.1107 22.5413 33.8738 22.5413 29.881C22.5413 25.8882 25.7782 22.6514 29.7711 22.6514C33.764 22.6514 37.0009 25.8882 37.0009 29.881Z" fill="#0830F7"/>
<path d="M51.2059 37.1107C55.1988 37.1107 58.4357 33.8738 58.4357 29.881C58.4357 25.8882 55.1988 22.6514 51.2059 22.6514C47.213 22.6514 43.9761 25.8882 43.9761 29.881C43.9761 33.8738 47.213 37.1107 51.2059 37.1107Z" fill="#0830F7"/>
</svg>
