<svg xmlns="http://www.w3.org/2000/svg" width="100" height="100" viewBox="0 0 100 100" fill="none">
<path opacity="0.5" fill-rule="evenodd" clip-rule="evenodd" d="M34.0021 18.931C41.0855 18.931 46.8803 24.678 46.8803 31.7092V50.3031H53.3132V31.7092C53.3132 21.0732 44.586 12.498 34.0021 12.498C23.4182 12.498 14.6909 21.0732 14.6909 31.7092V48.0716H21.1238V31.7092C21.1238 24.678 26.9187 18.931 34.0021 18.931Z" fill="#006AFF"/>
<path opacity="0.5" fill-rule="evenodd" clip-rule="evenodd" d="M66.0954 18.931C73.1527 18.931 78.8737 24.652 78.8737 31.7092V50.3031H85.3066V31.7092C85.3066 21.0992 76.7055 12.498 66.0954 12.498H33.906C23.296 12.498 14.6948 21.0992 14.6948 31.7092V48.0716H21.1277V31.7092C21.1277 24.652 26.8488 18.931 33.906 18.931H66.0954Z" fill="#006AFF"/>
<path fill-rule="evenodd" clip-rule="evenodd" d="M65.9939 81.069C58.9106 81.069 53.1157 75.322 53.1157 68.2908V49.6969H46.6828V68.2908C46.6828 78.9268 55.41 87.502 65.9939 87.502C76.5779 87.502 85.3051 78.9268 85.3051 68.2908V51.9284H78.8722V68.2908C78.8722 75.322 73.0773 81.069 65.9939 81.069Z" fill="#006AFF"/>
<path opacity="0.4" fill-rule="evenodd" clip-rule="evenodd" d="M33.9141 81.069C26.8568 81.069 21.1358 75.348 21.1358 68.2908V49.6969H14.7029V68.2908C14.7029 78.9008 23.304 87.502 33.9141 87.502H66.1035C76.7135 87.502 85.3147 78.9008 85.3147 68.2908V51.9284H78.8818V68.2908C78.8818 75.348 73.1607 81.069 66.1035 81.069H33.9141Z" fill="#006AFF"/>
<path d="M17.9123 60.6793C23.8752 60.6793 28.709 55.8456 28.709 49.8829C28.709 43.9202 23.8752 39.0864 17.9123 39.0864C11.9494 39.0864 7.11559 43.9202 7.11559 49.8829C7.11559 55.8456 11.9494 60.6793 17.9123 60.6793Z" fill="#006AFF"/>
<path d="M60.8776 49.8838C60.8776 55.8465 56.0437 60.6803 50.0809 60.6803C44.118 60.6803 39.2841 55.8465 39.2841 49.8838C39.2841 43.9212 44.118 39.0874 50.0809 39.0874C56.0437 39.0874 60.8776 43.9212 60.8776 49.8838Z" fill="#006AFF"/>
<path d="M82.0877 60.6803C88.0506 60.6803 92.8844 55.8465 92.8844 49.8838C92.8844 43.9212 88.0506 39.0874 82.0877 39.0874C76.1249 39.0874 71.291 43.9212 71.291 49.8838C71.291 55.8465 76.1249 60.6803 82.0877 60.6803Z" fill="#006AFF"/>
</svg>