<svg width="1280" height="640" viewBox="0 0 1280 640" fill="none" xmlns="http://www.w3.org/2000/svg">
<path d="M131.5 303.611V342.5H96.5V303.611C96.5 231.337 159.353 175 234 175C308.647 175 371.5 231.337 371.5 303.611V368.426C371.5 420.245 326.555 460 274 460C221.445 460 176.5 420.245 176.5 368.426V342.5H211.5V368.426C211.5 398.427 238.19 425 274 425C309.81 425 336.5 398.427 336.5 368.426V303.611C336.5 253.155 291.902 210 234 210C176.098 210 131.5 253.155 131.5 303.611Z" fill="#71DDFF"/>
<path d="M131.5 318.13V316.574C131.5 286.573 158.19 260 194 260C229.81 260 256.5 286.573 256.5 316.574V318.13C261.426 314.587 267.469 312.5 274 312.5C280.531 312.5 286.574 314.587 291.5 318.13V316.574C291.5 264.755 246.555 225 194 225C141.445 225 96.5 264.755 96.5 316.574V318.13C101.426 314.587 107.469 312.5 114 312.5C120.531 312.5 126.574 314.587 131.5 318.13Z" fill="#309CDB"/>
<path d="M294.218 364.664C288.885 369.531 281.789 372.5 274 372.5C268.102 372.5 262.601 370.798 257.963 367.858C263.975 392.743 287.711 410 314 410C340.289 410 364.025 392.743 370.037 367.858C365.399 370.798 359.898 372.5 354 372.5C346.211 372.5 339.115 369.531 333.782 364.664C330.183 370.505 323.202 375 314 375C304.798 375 297.817 370.505 294.218 364.664Z" fill="#309CDB"/>
<path d="M114 372.5C130.569 372.5 144 359.069 144 342.5C144 325.931 130.569 312.5 114 312.5C97.4315 312.5 84 325.931 84 342.5C84 359.069 97.4315 372.5 114 372.5Z" fill="#155493"/>
<path d="M224 342.5C224 359.069 210.569 372.5 194 372.5C177.431 372.5 164 359.069 164 342.5C164 325.931 177.431 312.5 194 312.5C210.569 312.5 224 325.931 224 342.5Z" fill="#155493"/>
<path d="M274 372.5C290.569 372.5 304 359.069 304 342.5C304 325.931 290.569 312.5 274 312.5C257.431 312.5 244 325.931 244 342.5C244 359.069 257.431 372.5 274 372.5Z" fill="#155493"/>
<path d="M354 372.5C370.569 372.5 384 359.069 384 342.5C384 325.931 370.569 312.5 354 312.5C337.431 312.5 324 325.931 324 342.5C324 359.069 337.431 372.5 354 372.5Z" fill="#155493"/>
<path d="M528.06 284.36C525.18 270.5 513.66 252.68 484.86 252.68C461.28 252.68 442.74 270.68 442.74 290.66C442.74 309.74 455.7 321.62 473.88 325.58L492.06 329.54C504.84 332.24 511.14 340.16 511.14 349.34C511.14 360.5 502.5 369.68 484.86 369.68C465.6 369.68 455.52 356.54 454.26 342.32L437.34 347.72C439.68 365.9 454.26 385.7 485.04 385.7C512.22 385.7 529.14 367.7 529.14 347.9C529.14 330.08 517.26 316.76 496.02 312.08L476.94 307.94C466.14 305.6 460.56 298.58 460.56 289.4C460.56 277.52 470.82 268.16 485.22 268.16C503.04 268.16 510.78 280.76 512.22 289.94L528.06 284.36ZM544.42 319.1C544.42 361.76 576.46 385.7 608.5 385.7C620.2 385.7 631.9 382.64 641.98 376.52L657.46 393.62L669.52 383L654.58 366.26C665.38 355.1 672.58 339.26 672.58 319.1C672.58 276.44 640.54 252.68 608.5 252.68C576.46 252.68 544.42 276.44 544.42 319.1ZM562.42 319.1C562.42 285.8 584.74 268.88 608.5 268.88C632.26 268.88 654.58 285.8 654.58 319.1C654.58 333.86 650.08 345.38 643.24 353.66L620.92 328.46L608.68 339.08L630.82 363.92C623.98 367.7 616.42 369.5 608.5 369.5C584.74 369.5 562.42 352.4 562.42 319.1ZM774.777 383V366.44H714.477V255.38H696.837V383H774.777Z" fill="white"/>
<path d="M528.06 284.36L528.725 286.246C529.669 285.914 530.222 284.934 530.018 283.953L528.06 284.36ZM473.88 325.58L473.454 327.534L473.454 327.534L473.88 325.58ZM492.06 329.54L491.634 331.494L491.647 331.497L492.06 329.54ZM454.26 342.32L456.252 342.143C456.199 341.539 455.873 340.991 455.367 340.655C454.862 340.318 454.23 340.23 453.652 340.415L454.26 342.32ZM437.34 347.72L436.732 345.815C435.812 346.108 435.233 347.017 435.356 347.975L437.34 347.72ZM496.02 312.08L496.45 310.127L496.444 310.125L496.02 312.08ZM476.94 307.94L477.364 305.985L477.364 305.985L476.94 307.94ZM512.22 289.94L510.244 290.25C510.336 290.837 510.685 291.353 511.195 291.657C511.705 291.962 512.324 292.024 512.885 291.826L512.22 289.94ZM530.018 283.953C528.509 276.692 524.734 268.364 517.522 261.839C510.277 255.285 499.703 250.68 484.86 250.68V254.68C498.817 254.68 508.403 258.984 514.838 264.806C521.306 270.656 524.731 278.168 526.102 284.767L530.018 283.953ZM484.86 250.68C460.33 250.68 440.74 269.427 440.74 290.66H444.74C444.74 271.933 462.23 254.68 484.86 254.68V250.68ZM440.74 290.66C440.74 300.689 444.16 308.925 450.037 315.162C455.887 321.37 464.067 325.489 473.454 327.534L474.306 323.626C465.513 321.711 458.123 317.91 452.948 312.418C447.8 306.955 444.74 299.711 444.74 290.66H440.74ZM473.454 327.534L491.634 331.494L492.486 327.586L474.306 323.626L473.454 327.534ZM491.647 331.497C497.718 332.78 502.083 335.265 504.917 338.361C507.739 341.442 509.14 345.23 509.14 349.34H513.14C513.14 344.27 511.391 339.508 507.868 335.659C504.357 331.825 499.182 329 492.473 327.583L491.647 331.497ZM509.14 349.34C509.14 354.374 507.208 358.884 503.324 362.168C499.414 365.473 493.347 367.68 484.86 367.68V371.68C494.013 371.68 501.086 369.297 505.906 365.222C510.752 361.126 513.14 355.466 513.14 349.34H509.14ZM484.86 367.68C475.716 367.68 468.902 364.575 464.221 359.915C459.515 355.23 456.847 348.852 456.252 342.143L452.268 342.497C452.933 350.008 455.935 357.31 461.399 362.75C466.888 368.215 474.744 371.68 484.86 371.68V367.68ZM453.652 340.415L436.732 345.815L437.948 349.625L454.868 344.225L453.652 340.415ZM435.356 347.975C436.58 357.48 441.002 367.421 449.165 374.994C457.354 382.591 469.194 387.7 485.04 387.7V383.7C470.106 383.7 459.266 378.909 451.885 372.061C444.478 365.189 440.44 356.14 439.324 347.465L435.356 347.975ZM485.04 387.7C513.152 387.7 531.14 368.969 531.14 347.9H527.14C527.14 366.431 511.288 383.7 485.04 383.7V387.7ZM531.14 347.9C531.14 338.518 528.001 330.243 522.02 323.712C516.057 317.2 507.376 312.534 496.45 310.127L495.59 314.033C505.904 316.306 513.783 320.64 519.07 326.413C524.339 332.167 527.14 339.462 527.14 347.9H531.14ZM496.444 310.125L477.364 305.985L476.516 309.895L495.596 314.035L496.444 310.125ZM477.364 305.985C472.299 304.888 468.623 302.732 466.217 299.932C463.819 297.141 462.56 293.569 462.56 289.4H458.56C458.56 294.411 460.091 298.939 463.183 302.538C466.267 306.128 470.781 308.652 476.516 309.895L477.364 305.985ZM462.56 289.4C462.56 278.865 471.668 270.16 485.22 270.16V266.16C469.972 266.16 458.56 276.175 458.56 289.4H462.56ZM485.22 270.16C501.811 270.16 508.916 281.781 510.244 290.25L514.196 289.63C512.644 279.739 504.269 266.16 485.22 266.16V270.16ZM512.885 291.826L528.725 286.246L527.395 282.474L511.555 288.054L512.885 291.826ZM641.98 376.52L643.463 375.178C642.819 374.467 641.762 374.313 640.942 374.81L641.98 376.52ZM657.46 393.62L655.978 394.962C656.712 395.773 657.961 395.844 658.782 395.121L657.46 393.62ZM669.52 383L670.842 384.501C671.242 384.149 671.485 383.652 671.517 383.12C671.549 382.588 671.367 382.066 671.012 381.668L669.52 383ZM654.58 366.26L653.143 364.869C652.414 365.622 652.39 366.81 653.088 367.592L654.58 366.26ZM643.24 353.66L641.743 354.986C642.131 355.424 642.69 355.67 643.275 355.66C643.859 355.65 644.41 355.384 644.782 354.934L643.24 353.66ZM620.92 328.46L622.417 327.134C621.69 326.313 620.438 326.231 619.61 326.949L620.92 328.46ZM608.68 339.08L607.37 337.569C606.965 337.92 606.719 338.418 606.684 338.952C606.65 339.486 606.831 340.011 607.187 340.411L608.68 339.08ZM630.82 363.92L631.788 365.67C632.32 365.376 632.69 364.856 632.792 364.256C632.894 363.657 632.718 363.043 632.313 362.589L630.82 363.92ZM542.42 319.1C542.42 362.976 575.47 387.7 608.5 387.7V383.7C577.451 383.7 546.42 360.544 546.42 319.1H542.42ZM608.5 387.7C620.543 387.7 632.606 384.551 643.018 378.23L640.942 374.81C631.195 380.729 619.857 383.7 608.5 383.7V387.7ZM640.498 377.862L655.978 394.962L658.943 392.278L643.463 375.178L640.498 377.862ZM658.782 395.121L670.842 384.501L668.199 381.499L656.139 392.119L658.782 395.121ZM671.012 381.668L656.072 364.928L653.088 367.592L668.028 384.332L671.012 381.668ZM656.018 367.651C667.186 356.11 674.58 339.768 674.58 319.1H670.58C670.58 338.752 663.574 354.09 653.143 364.869L656.018 367.651ZM674.58 319.1C674.58 275.217 641.523 250.68 608.5 250.68V254.68C639.558 254.68 670.58 277.663 670.58 319.1H674.58ZM608.5 250.68C575.478 250.68 542.42 275.217 542.42 319.1H546.42C546.42 277.663 577.443 254.68 608.5 254.68V250.68ZM564.42 319.1C564.42 302.919 569.83 290.901 577.951 282.93C586.091 274.94 597.091 270.88 608.5 270.88V266.88C596.15 266.88 584.11 271.28 575.149 280.075C566.17 288.889 560.42 301.981 560.42 319.1H564.42ZM608.5 270.88C619.91 270.88 630.91 274.94 639.049 282.93C647.17 290.901 652.58 302.919 652.58 319.1H656.58C656.58 301.981 650.83 288.889 641.851 280.075C632.891 271.28 620.851 266.88 608.5 266.88V270.88ZM652.58 319.1C652.58 333.436 648.217 344.495 641.698 352.386L644.782 354.934C651.943 346.265 656.58 334.284 656.58 319.1H652.58ZM644.737 352.334L622.417 327.134L619.423 329.786L641.743 354.986L644.737 352.334ZM619.61 326.949L607.37 337.569L609.991 340.591L622.231 329.971L619.61 326.949ZM607.187 340.411L629.327 365.251L632.313 362.589L610.173 337.749L607.187 340.411ZM629.853 362.17C623.333 365.772 616.111 367.5 608.5 367.5V371.5C616.73 371.5 624.627 369.628 631.788 365.67L629.853 362.17ZM608.5 367.5C597.097 367.5 586.097 363.399 577.955 355.364C569.831 347.347 564.42 335.282 564.42 319.1H560.42C560.42 336.218 566.17 349.353 575.145 358.211C584.104 367.051 596.144 371.5 608.5 371.5V367.5ZM774.777 383V385C775.881 385 776.777 384.105 776.777 383H774.777ZM774.777 366.44H776.777C776.777 365.335 775.881 364.44 774.777 364.44V366.44ZM714.477 366.44H712.477C712.477 367.545 713.372 368.44 714.477 368.44V366.44ZM714.477 255.38H716.477C716.477 254.275 715.581 253.38 714.477 253.38V255.38ZM696.837 255.38V253.38C695.732 253.38 694.837 254.275 694.837 255.38H696.837ZM696.837 383H694.837C694.837 384.105 695.732 385 696.837 385V383ZM776.777 383V366.44H772.777V383H776.777ZM774.777 364.44H714.477V368.44H774.777V364.44ZM716.477 366.44V255.38H712.477V366.44H716.477ZM714.477 253.38H696.837V257.38H714.477V253.38ZM694.837 255.38V383H698.837V255.38H694.837ZM696.837 385H774.777V381H696.837V385Z" fill="#60606B"/>
<path d="M947.9 383V255.38H908.84L875.54 341.6L840.44 255.38H803.36V383H830.36V299.48L863.66 383H886.7L920 298.4V383H947.9ZM993.647 327.56C994.187 320.9 999.947 312.44 1011.47 312.44C1024.43 312.44 1029.11 320.72 1029.47 327.56H993.647ZM1031.45 350.78C1028.93 357.8 1023.35 362.48 1013.45 362.48C1002.83 362.48 993.647 355.28 993.107 345.2H1055.39C1055.57 344.66 1055.93 340.52 1055.93 336.74C1055.93 307.94 1038.83 290.84 1011.11 290.84C987.887 290.84 966.467 309.2 966.467 338C966.467 368.06 988.427 385.7 1013.09 385.7C1035.77 385.7 1049.99 372.74 1054.31 357.26L1031.45 350.78ZM1066.11 357.62C1066.83 367.52 1075.83 385.7 1103.91 385.7C1127.85 385.7 1139.55 370.76 1139.55 355.46C1139.55 342.32 1130.55 331.16 1112.01 327.38L1100.13 325.04C1096.17 324.32 1093.11 322.16 1093.11 318.38C1093.11 313.7 1097.61 310.64 1102.83 310.64C1111.11 310.64 1114.89 315.68 1115.61 321.62L1138.29 317.48C1137.39 307.04 1128.39 290.84 1102.47 290.84C1082.49 290.84 1068.09 304.16 1068.09 320.54C1068.09 333.14 1075.65 343.94 1094.73 348.08L1104.99 350.42C1111.65 351.86 1113.81 354.56 1113.81 357.8C1113.81 361.76 1110.39 365.54 1103.37 365.54C1094.01 365.54 1089.69 359.6 1089.33 353.48L1066.11 357.62ZM1184.7 330.44C1185.24 322.16 1190.82 316.04 1199.46 316.04C1209.36 316.04 1214.04 322.7 1214.04 331.52V383H1241.4V326.84C1241.4 307.22 1230.96 291.2 1207.56 291.2C1199.64 291.2 1190.28 293.72 1184.7 299.3V252.68H1157.34V383H1184.7V330.44Z" fill="white"/>
<path d="M947.9 383V385C949.005 385 949.9 384.105 949.9 383H947.9ZM947.9 255.38H949.9C949.9 254.275 949.005 253.38 947.9 253.38V255.38ZM908.84 255.38V253.38C908.013 253.38 907.272 253.888 906.974 254.659L908.84 255.38ZM875.54 341.6L873.688 342.354C873.997 343.114 874.738 343.607 875.558 343.6C876.378 343.593 877.11 343.085 877.406 342.321L875.54 341.6ZM840.44 255.38L842.292 254.626C841.986 253.873 841.253 253.38 840.44 253.38V255.38ZM803.36 255.38V253.38C802.255 253.38 801.36 254.275 801.36 255.38H803.36ZM803.36 383H801.36C801.36 384.105 802.255 385 803.36 385V383ZM830.36 383V385C831.465 385 832.36 384.105 832.36 383H830.36ZM830.36 299.48L832.218 298.739C831.863 297.848 830.925 297.335 829.983 297.516C829.041 297.697 828.36 298.521 828.36 299.48H830.36ZM863.66 383L861.802 383.741C862.105 384.501 862.841 385 863.66 385V383ZM886.7 383V385C887.522 385 888.26 384.497 888.561 383.733L886.7 383ZM920 298.4H922C922 297.439 921.317 296.614 920.373 296.435C919.429 296.256 918.491 296.773 918.139 297.667L920 298.4ZM920 383H918C918 384.105 918.895 385 920 385V383ZM949.9 383V255.38H945.9V383H949.9ZM947.9 253.38H908.84V257.38H947.9V253.38ZM906.974 254.659L873.674 340.879L877.406 342.321L910.706 256.101L906.974 254.659ZM877.392 340.846L842.292 254.626L838.588 256.134L873.688 342.354L877.392 340.846ZM840.44 253.38H803.36V257.38H840.44V253.38ZM801.36 255.38V383H805.36V255.38H801.36ZM803.36 385H830.36V381H803.36V385ZM832.36 383V299.48H828.36V383H832.36ZM828.502 300.221L861.802 383.741L865.518 382.259L832.218 298.739L828.502 300.221ZM863.66 385H886.7V381H863.66V385ZM888.561 383.733L921.861 299.133L918.139 297.667L884.839 382.267L888.561 383.733ZM918 298.4V383H922V298.4H918ZM920 385H947.9V381H920V385ZM993.647 327.56L991.653 327.398C991.608 327.955 991.798 328.505 992.176 328.916C992.555 329.326 993.088 329.56 993.647 329.56V327.56ZM1029.47 327.56V329.56C1030.02 329.56 1030.54 329.335 1030.92 328.937C1031.3 328.539 1031.49 328.003 1031.46 327.455L1029.47 327.56ZM1031.45 350.78L1031.99 348.856C1030.98 348.569 1029.92 349.115 1029.56 350.104L1031.45 350.78ZM993.107 345.2V343.2C992.558 343.2 992.033 343.426 991.655 343.824C991.277 344.223 991.08 344.759 991.11 345.307L993.107 345.2ZM1055.39 345.2V347.2C1056.25 347.2 1057.01 346.649 1057.28 345.832L1055.39 345.2ZM1054.31 357.26L1056.23 357.798C1056.53 356.737 1055.91 355.636 1054.85 355.336L1054.31 357.26ZM995.64 327.722C996.108 321.951 1001.13 314.44 1011.47 314.44V310.44C998.761 310.44 992.265 319.849 991.653 327.398L995.64 327.722ZM1011.47 314.44C1017.49 314.44 1021.35 316.349 1023.76 318.827C1026.19 321.342 1027.31 324.632 1027.47 327.665L1031.46 327.455C1031.26 323.648 1029.86 319.378 1026.63 316.043C1023.36 312.671 1018.4 310.44 1011.47 310.44V314.44ZM1029.47 325.56H993.647V329.56H1029.47V325.56ZM1029.56 350.104C1028.42 353.299 1026.62 355.852 1024.07 357.62C1021.53 359.389 1018.08 360.48 1013.45 360.48V364.48C1018.72 364.48 1023.01 363.231 1026.36 360.905C1029.71 358.578 1031.96 355.281 1033.33 351.456L1029.56 350.104ZM1013.45 360.48C1003.64 360.48 995.574 353.877 995.104 345.093L991.11 345.307C991.719 356.683 1002.02 364.48 1013.45 364.48V360.48ZM993.107 347.2H1055.39V343.2H993.107V347.2ZM1057.28 345.832C1057.37 345.588 1057.41 345.313 1057.44 345.147C1057.47 344.936 1057.5 344.684 1057.53 344.406C1057.6 343.849 1057.66 343.134 1057.72 342.327C1057.83 340.715 1057.93 338.687 1057.93 336.74H1053.93C1053.93 338.573 1053.84 340.505 1053.73 342.043C1053.67 342.811 1053.61 343.469 1053.56 343.957C1053.53 344.203 1053.51 344.393 1053.49 344.526C1053.46 344.705 1053.45 344.677 1053.49 344.568L1057.28 345.832ZM1057.93 336.74C1057.93 321.945 1053.53 309.92 1045.34 301.588C1037.15 293.252 1025.38 288.84 1011.11 288.84V292.84C1024.55 292.84 1035.2 296.978 1042.49 304.392C1049.78 311.81 1053.93 322.735 1053.93 336.74H1057.93ZM1011.11 288.84C986.798 288.84 964.467 308.08 964.467 338H968.467C968.467 310.32 988.976 292.84 1011.11 292.84V288.84ZM964.467 338C964.467 369.255 987.414 387.7 1013.09 387.7V383.7C989.439 383.7 968.467 366.865 968.467 338H964.467ZM1013.09 387.7C1036.64 387.7 1051.66 374.167 1056.23 357.798L1052.38 356.722C1048.31 371.313 1034.9 383.7 1013.09 383.7V387.7ZM1054.85 355.336L1031.99 348.856L1030.9 352.704L1053.76 359.184L1054.85 355.336ZM1066.11 357.62L1065.76 355.651C1064.75 355.831 1064.04 356.743 1064.12 357.765L1066.11 357.62ZM1112.01 327.38L1112.41 325.42L1112.4 325.418L1112.01 327.38ZM1100.13 325.04L1100.52 323.078C1100.51 323.076 1100.5 323.074 1100.49 323.072L1100.13 325.04ZM1115.61 321.62L1113.63 321.861C1113.69 322.408 1113.98 322.903 1114.43 323.23C1114.87 323.557 1115.43 323.686 1115.97 323.587L1115.61 321.62ZM1138.29 317.48L1138.65 319.447C1139.67 319.262 1140.37 318.336 1140.29 317.308L1138.29 317.48ZM1094.73 348.08L1095.18 346.13C1095.17 346.129 1095.16 346.127 1095.16 346.125L1094.73 348.08ZM1104.99 350.42L1104.55 352.37C1104.56 352.372 1104.56 352.373 1104.57 352.375L1104.99 350.42ZM1089.33 353.48L1091.33 353.363C1091.3 352.792 1091.02 352.263 1090.57 351.91C1090.12 351.556 1089.55 351.411 1088.98 351.511L1089.33 353.48ZM1064.12 357.765C1064.51 363.164 1067.13 370.649 1073.35 376.795C1079.61 382.988 1089.41 387.7 1103.91 387.7V383.7C1090.34 383.7 1081.59 379.322 1076.16 373.95C1070.68 368.531 1068.44 361.976 1068.11 357.475L1064.12 357.765ZM1103.91 387.7C1116.31 387.7 1125.74 383.822 1132.09 377.764C1138.43 371.716 1141.55 363.622 1141.55 355.46H1137.55C1137.55 362.598 1134.83 369.624 1129.33 374.871C1123.84 380.108 1115.46 383.7 1103.91 383.7V387.7ZM1141.55 355.46C1141.55 348.409 1139.13 341.84 1134.2 336.547C1129.29 331.271 1121.99 327.373 1112.41 325.42L1111.61 329.34C1120.57 331.167 1127.05 334.739 1131.27 339.273C1135.48 343.79 1137.55 349.371 1137.55 355.46H1141.55ZM1112.4 325.418L1100.52 323.078L1099.75 327.002L1111.63 329.342L1112.4 325.418ZM1100.49 323.072C1098.74 322.754 1097.36 322.144 1096.46 321.352C1095.6 320.607 1095.11 319.66 1095.11 318.38H1091.11C1091.11 320.88 1092.15 322.903 1093.82 324.363C1095.44 325.776 1097.57 326.606 1099.78 327.008L1100.49 323.072ZM1095.11 318.38C1095.11 315.281 1098.17 312.64 1102.83 312.64V308.64C1097.05 308.64 1091.11 312.119 1091.11 318.38H1095.11ZM1102.83 312.64C1106.55 312.64 1109.03 313.757 1110.67 315.34C1112.33 316.948 1113.31 319.225 1113.63 321.861L1117.6 321.379C1117.2 318.075 1115.93 314.862 1113.45 312.465C1110.95 310.043 1107.4 308.64 1102.83 308.64V312.64ZM1115.97 323.587L1138.65 319.447L1137.93 315.513L1115.25 319.653L1115.97 323.587ZM1140.29 317.308C1139.8 311.648 1137.13 304.52 1131.15 298.799C1125.13 293.042 1115.88 288.84 1102.47 288.84V292.84C1114.99 292.84 1123.2 296.738 1128.38 301.691C1133.6 306.68 1135.89 312.872 1136.3 317.652L1140.29 317.308ZM1102.47 288.84C1081.63 288.84 1066.09 302.827 1066.09 320.54H1070.09C1070.09 305.493 1083.35 292.84 1102.47 292.84V288.84ZM1066.09 320.54C1066.09 327.259 1068.12 333.604 1072.77 338.814C1077.4 344.004 1084.48 347.902 1094.31 350.035L1095.16 346.125C1085.91 344.118 1079.67 340.546 1075.75 336.151C1071.85 331.776 1070.09 326.421 1070.09 320.54H1066.09ZM1094.29 350.03L1104.55 352.37L1105.44 348.47L1095.18 346.13L1094.29 350.03ZM1104.57 352.375C1107.73 353.058 1109.55 353.988 1110.55 354.908C1111.47 355.757 1111.81 356.689 1111.81 357.8H1115.81C1115.81 355.671 1115.07 353.633 1113.25 351.962C1111.51 350.362 1108.91 349.222 1105.42 348.465L1104.57 352.375ZM1111.81 357.8C1111.81 359.178 1111.23 360.552 1109.95 361.617C1108.65 362.692 1106.53 363.54 1103.37 363.54V367.54C1107.24 367.54 1110.33 366.498 1112.5 364.693C1114.69 362.878 1115.81 360.382 1115.81 357.8H1111.81ZM1103.37 363.54C1099.14 363.54 1096.25 362.209 1094.38 360.377C1092.49 358.524 1091.49 356.002 1091.33 353.363L1087.34 353.597C1087.54 357.078 1088.88 360.586 1091.58 363.233C1094.3 365.901 1098.25 367.54 1103.37 367.54V363.54ZM1088.98 351.511L1065.76 355.651L1066.46 359.589L1089.68 355.449L1088.98 351.511ZM1184.7 330.44L1182.71 330.31C1182.7 330.353 1182.7 330.397 1182.7 330.44H1184.7ZM1214.04 383H1212.04C1212.04 384.105 1212.94 385 1214.04 385V383ZM1241.4 383V385C1242.51 385 1243.4 384.105 1243.4 383H1241.4ZM1184.7 299.3H1182.7C1182.7 300.109 1183.19 300.838 1183.94 301.148C1184.68 301.457 1185.54 301.286 1186.12 300.714L1184.7 299.3ZM1184.7 252.68H1186.7C1186.7 251.575 1185.81 250.68 1184.7 250.68V252.68ZM1157.34 252.68V250.68C1156.24 250.68 1155.34 251.575 1155.34 252.68H1157.34ZM1157.34 383H1155.34C1155.34 384.105 1156.24 385 1157.34 385V383ZM1184.7 383V385C1185.81 385 1186.7 384.105 1186.7 383H1184.7ZM1186.7 330.57C1186.94 326.843 1188.31 323.719 1190.46 321.543C1192.61 319.381 1195.64 318.04 1199.46 318.04V314.04C1194.64 314.04 1190.57 315.759 1187.62 318.727C1184.7 321.681 1183 325.757 1182.71 330.31L1186.7 330.57ZM1199.46 318.04C1203.93 318.04 1206.99 319.525 1208.95 321.785C1210.96 324.089 1212.04 327.441 1212.04 331.52H1216.04C1216.04 326.779 1214.78 322.391 1211.97 319.16C1209.12 315.885 1204.89 314.04 1199.46 314.04V318.04ZM1212.04 331.52V383H1216.04V331.52H1212.04ZM1214.04 385H1241.4V381H1214.04V385ZM1243.4 383V326.84H1239.4V383H1243.4ZM1243.4 326.84C1243.4 316.7 1240.7 307.279 1234.77 300.361C1228.8 293.395 1219.75 289.2 1207.56 289.2V293.2C1218.77 293.2 1226.64 297.015 1231.74 302.964C1236.88 308.961 1239.4 317.36 1239.4 326.84H1243.4ZM1207.56 289.2C1199.34 289.2 1189.38 291.793 1183.29 297.886L1186.12 300.714C1191.18 295.647 1199.94 293.2 1207.56 293.2V289.2ZM1186.7 299.3V252.68H1182.7V299.3H1186.7ZM1184.7 250.68H1157.34V254.68H1184.7V250.68ZM1155.34 252.68V383H1159.34V252.68H1155.34ZM1157.34 385H1184.7V381H1157.34V385ZM1186.7 383V330.44H1182.7V383H1186.7Z" fill="#60606B"/>
</svg>
