<svg width="502" height="490" viewBox="0 0 502 490" fill="none" xmlns="http://www.w3.org/2000/svg">
<path d="M63.5238 308C98.3182 308 126.525 279.794 126.525 245C126.525 210.206 98.3182 182 63.5238 182C28.7294 182 0.522949 210.206 0.522949 245C0.522949 279.794 28.7294 308 63.5238 308Z" fill="#ffffff"/>
<path d="M91.5381 133.812C122.853 133.812 148.239 108.427 148.239 77.1121C148.239 45.7977 122.853 20.4121 91.5381 20.4121C60.2231 20.4121 34.8373 45.7977 34.8373 77.1121C34.8373 108.427 60.2231 133.812 91.5381 133.812Z" fill="#ffffff"/>
<path d="M91.5381 469.812C122.853 469.812 148.239 444.427 148.239 413.112C148.239 381.798 122.853 356.412 91.5381 356.412C60.2231 356.412 34.8373 381.798 34.8373 413.112C34.8373 444.427 60.2231 469.812 91.5381 469.812Z" fill="#ffffff"/>
<path d="M313.814 245C313.814 279.794 285.607 308 250.813 308C216.018 308 187.812 279.794 187.812 245C187.812 210.206 216.018 182 250.813 182C285.607 182 313.814 210.206 313.814 245Z" fill="#ffffff"/>
<path d="M313.814 63.0001C313.814 97.7939 285.607 126 250.813 126C216.018 126 187.812 97.7939 187.812 63.0001C187.812 28.2062 216.018 0 250.813 0C285.607 0 313.814 28.2062 313.814 63.0001Z" fill="#ffffff"/>
<path d="M313.814 427C313.814 461.794 285.607 490 250.813 490C216.018 490 187.812 461.794 187.812 427C187.812 392.206 216.018 364 250.813 364C285.607 364 313.814 392.206 313.814 427Z" fill="#ffffff"/>
<path d="M438.076 308C472.871 308 501.077 279.794 501.077 245C501.077 210.206 472.871 182 438.076 182C403.282 182 375.076 210.206 375.076 245C375.076 279.794 403.282 308 438.076 308Z" fill="#ffffff"/>
<path d="M410.074 133.812C441.389 133.812 466.775 108.427 466.775 77.1121C466.775 45.7977 441.389 20.4121 410.074 20.4121C378.759 20.4121 353.373 45.7977 353.373 77.1121C353.373 108.427 378.759 133.812 410.074 133.812Z" fill="#ffffff"/>
<path d="M410.074 469.812C441.389 469.812 466.775 444.427 466.775 413.112C466.775 381.798 441.389 356.412 410.074 356.412C378.759 356.412 353.373 381.798 353.373 413.112C353.373 444.427 378.759 469.812 410.074 469.812Z" fill="#ffffff"/>
</svg>
